<?xml version="1.0" standalone="no"?>
<!DOCTYPE svg PUBLIC "-//W3C//DTD SVG 20010904//EN"
 "http://www.w3.org/TR/2001/REC-SVG-20010904/DTD/svg10.dtd">
<svg version="1.0" xmlns="http://www.w3.org/2000/svg"
 width="800.000000pt" height="566.000000pt" viewBox="0 0 800.000000 566.000000"
 preserveAspectRatio="xMidYMid meet">

<g transform="translate(0.000000,566.000000) scale(0.100000,-0.100000)"
fill="#000000" stroke="none">
<path d="M2000 4036 c0 -3 81 -103 181 -221 l180 -216 -29 -87 c-17 -48 -75
-215 -131 -372 -221 -631 -260 -744 -258 -747 2 -1 53 54 113 124 60 69 188
217 284 328 96 111 256 295 355 410 99 115 217 251 263 303 45 52 79 99 75
103 -4 4 -60 25 -123 47 -201 70 -778 281 -892 327 -10 4 -18 5 -18 1z"/>
<path d="M1488 3863 c-80 -93 -178 -206 -219 -253 -40 -47 -143 -166 -229
-265 -86 -99 -187 -216 -225 -260 -39 -45 -114 -132 -168 -193 -53 -62 -97
-116 -97 -121 0 -4 15 -12 33 -18 17 -6 122 -43 232 -83 110 -39 243 -87 295
-105 52 -18 178 -63 279 -99 102 -36 189 -66 193 -66 5 0 -72 97 -172 215 -99
118 -180 218 -180 223 0 4 54 162 121 352 251 720 290 833 286 836 -2 3 -69
-71 -149 -163z"/>
<path d="M3330 3115 l0 -555 550 0 550 0 0 105 0 105 -450 0 -450 0 0 450 0
450 -100 0 -100 0 0 -555z"/>
<path d="M4634 3657 c-2 -7 -3 -255 -2 -552 l3 -540 100 0 100 0 3 553 2 552
-100 0 c-73 0 -102 -4 -106 -13z"/>
<path d="M5045 3658 c-3 -7 -4 -256 -3 -553 l3 -540 103 -3 102 -3 0 226 0
225 348 2 347 3 0 100 0 100 -347 3 -348 2 0 120 0 120 450 0 450 0 0 105 0
105 -550 0 c-431 0 -552 -3 -555 -12z"/>
<path d="M6360 3115 l0 -555 550 0 551 0 -3 103 -3 102 -447 3 -448 2 0 120 0
120 345 0 345 0 0 105 0 105 -345 0 -345 0 0 120 0 120 448 2 447 3 3 103 3
102 -551 0 -550 0 0 -555z"/>
<path d="M1716 3415 c-139 -49 -181 -239 -78 -348 92 -97 247 -88 329 20 79
106 40 263 -80 318 -58 28 -113 31 -171 10z"/>
<path d="M1734 2049 c-39 -11 -95 -67 -110 -111 -18 -48 -17 -162 2 -206 38
-93 127 -135 237 -112 94 19 147 97 147 215 0 76 -18 127 -63 173 -46 48 -132
65 -213 41z m152 -100 c27 -29 29 -35 29 -115 0 -84 -1 -86 -33 -115 -45 -40
-99 -40 -144 0 -29 25 -32 35 -36 94 -5 83 1 107 34 140 21 22 36 27 73 27 40
0 52 -5 77 -31z"/>
<path d="M4697 2046 c-81 -30 -119 -98 -119 -209 0 -148 61 -220 187 -220 62
0 121 21 132 49 9 24 23 15 23 -16 0 -20 5 -30 15 -30 12 0 15 19 15 110 l0
110 -90 0 c-73 0 -90 -3 -90 -15 0 -12 14 -15 70 -15 l70 0 0 -32 c0 -43 -31
-93 -69 -113 -49 -25 -124 -20 -161 11 -46 40 -60 74 -60 154 0 83 16 126 59
163 27 23 42 27 91 27 49 0 64 -4 90 -27 17 -14 36 -37 41 -50 5 -12 15 -23
24 -23 38 0 -4 89 -56 115 -44 23 -126 28 -172 11z"/>
<path d="M6685 2045 c-125 -44 -168 -242 -78 -363 35 -46 78 -65 148 -65 93 0
150 39 180 122 32 93 14 204 -44 262 -55 56 -129 71 -206 44z m153 -45 c45
-27 72 -89 72 -165 0 -118 -56 -185 -155 -185 -99 0 -155 67 -155 185 0 118
56 185 155 185 33 0 62 -7 83 -20z"/>
<path d="M1150 1835 l0 -215 40 0 40 0 0 95 0 95 85 0 84 0 3 -92 3 -93 40 0
40 0 0 210 0 210 -40 0 -40 0 -3 -77 -3 -78 -84 0 -85 0 0 80 0 80 -40 0 -40
0 0 -215z"/>
<path d="M2130 1835 l0 -215 40 0 40 0 0 162 c0 89 2 159 5 156 4 -4 75 -301
75 -315 0 -2 18 -3 40 -3 49 0 47 -4 86 178 16 72 32 132 36 132 5 0 8 -70 8
-156 l0 -155 38 3 37 3 0 210 0 210 -61 3 -62 3 -31 -138 c-18 -76 -36 -149
-40 -163 -6 -19 -16 11 -47 135 l-39 160 -62 3 -63 3 0 -216z"/>
<path d="M2674 2037 c-2 -7 -3 -102 -2 -212 l3 -200 158 -3 157 -3 0 41 0 40
-115 0 -115 0 0 55 0 55 100 0 100 0 0 35 0 35 -100 0 -100 0 0 45 0 45 110 0
110 0 0 40 0 40 -150 0 c-113 0 -152 -3 -156 -13z"/>
<path d="M3130 1835 c0 -201 1 -216 18 -213 16 3 17 21 17 213 0 192 -1 210
-17 213 -17 3 -18 -12 -18 -213z"/>
<path d="M3330 1834 c0 -200 1 -215 18 -212 15 3 18 22 22 183 l5 179 120
-182 c97 -146 124 -182 143 -182 l22 0 0 215 c0 208 -1 215 -20 215 -19 0 -20
-7 -20 -187 l0 -188 -125 188 c-169 252 -165 253 -165 -29z"/>
<path d="M3770 2030 c0 -18 6 -20 65 -20 l65 0 2 -192 c3 -174 5 -193 21 -196
16 -3 17 11 17 192 l0 195 68 3 c52 2 67 6 67 18 0 13 -25 15 -152 18 -148 2
-153 2 -153 -18z"/>
<path d="M4184 2037 c-2 -7 -3 -102 -2 -212 l3 -200 143 -3 c137 -2 142 -2
142 18 0 19 -6 20 -125 20 l-126 0 3 83 3 82 108 3 c86 2 107 6 107 17 0 12
-20 15 -110 15 l-110 0 0 75 0 75 120 0 c113 0 120 1 120 20 0 19 -7 20 -135
20 -101 0 -137 -3 -141 -13z"/>
<path d="M5100 1835 c0 -201 1 -216 18 -213 15 3 17 17 20 102 l3 98 83 -3
c110 -5 122 -15 128 -110 6 -74 16 -96 42 -86 12 5 13 13 5 39 -5 18 -9 50 -9
71 0 39 -14 76 -34 90 -7 5 -4 13 10 25 45 36 56 90 29 142 -23 45 -50 53
-177 58 l-118 4 0 -217z m245 150 c33 -33 32 -70 -4 -106 -28 -28 -34 -29
-115 -29 l-86 0 0 80 0 80 90 0 c83 0 93 -2 115 -25z"/>
<path d="M5663 2033 c-3 -10 -32 -83 -63 -163 -83 -211 -94 -240 -87 -246 15
-15 36 9 52 58 26 79 26 79 128 76 l91 -3 26 -65 c16 -39 33 -66 43 -68 9 -2
17 2 17 10 -1 7 -36 103 -78 213 -66 171 -81 200 -100 203 -14 2 -24 -3 -29
-15z m66 -125 c19 -51 36 -99 39 -105 3 -10 -17 -13 -78 -13 -62 0 -81 3 -77
13 2 6 19 54 38 105 18 50 36 92 39 92 3 0 21 -42 39 -92z"/>
<path d="M5950 2030 c0 -18 7 -20 65 -20 l65 0 2 -192 c3 -174 5 -193 21 -196
16 -3 17 11 17 192 l0 196 65 0 c58 0 65 2 65 20 0 19 -7 20 -150 20 -143 0
-150 -1 -150 -20z"/>
<path d="M6380 1835 c0 -184 2 -215 15 -215 13 0 15 31 15 215 0 184 -2 215
-15 215 -13 0 -15 -31 -15 -215z"/>
<path d="M7085 2038 c-3 -7 -4 -103 -3 -213 3 -180 5 -200 20 -203 16 -3 18
12 20 180 l3 183 120 -180 c88 -131 127 -181 143 -183 l22 -3 0 216 c0 201 -1
216 -17 213 -16 -3 -19 -22 -23 -182 l-5 -178 -120 178 c-112 168 -147 205
-160 172z"/>
</g>
</svg>
